<svg width="30" height="30" viewBox="0 0 30 30" fill="none" xmlns="http://www.w3.org/2000/svg">
<path d="M10.525 13.2625C10.7688 13.0188 11.0582 12.8254 11.3767 12.6935C11.6952 12.5616 12.0365 12.4937 12.3812 12.4937C12.726 12.4937 13.0673 12.5616 13.3858 12.6935C13.7043 12.8254 13.9937 13.0188 14.2375 13.2625C14.4813 13.5063 14.6746 13.7957 14.8066 14.1142C14.9385 14.4327 15.0064 14.774 15.0064 15.1188C15.0064 15.4635 14.9385 15.8049 14.8066 16.1234C14.6746 16.4419 14.4813 16.7313 14.2375 16.975L7.4375 23.75L2.5 25L3.7375 20.0625L10.525 13.2625Z" stroke="#17BAE2" stroke-width="2" stroke-linecap="round" stroke-linejoin="round"/>
<path d="M2.5 14.375V6.25C2.5 4.875 3.625 3.75 5 3.75H9.9125C10.3243 3.75213 10.7291 3.85594 11.0911 4.0522C11.4531 4.24846 11.761 4.5311 11.9875 4.875L13.0125 6.375C13.239 6.7189 13.5469 7.00154 13.9089 7.1978C14.2709 7.39406 14.6757 7.49787 15.0875 7.5H25C25.663 7.5 26.2989 7.76339 26.7678 8.23223C27.2366 8.70107 27.5 9.33696 27.5 10V22.5C27.5 23.163 27.2366 23.7989 26.7678 24.2678C26.2989 24.7366 25.663 25 25 25H13.125" stroke="#17BAE2" stroke-width="2" stroke-linecap="round" stroke-linejoin="round"/>
</svg>
