<svg width="27" height="30" viewBox="0 0 27 30" fill="none" xmlns="http://www.w3.org/2000/svg">
<path d="M25.3835 15.0309C25.2614 14.8609 25.1074 14.722 24.9294 14.6214L24.9108 14.6108C23.9636 14.0929 22.3281 14.5187 20.8935 15.7543C19.1757 17.2317 18.3998 19.3023 19.1646 20.3838C19.2865 20.5537 19.4404 20.6925 19.6182 20.793C20.5608 21.3298 22.2141 20.9063 23.6593 19.6631C25.3724 18.183 26.1436 16.1097 25.3835 15.0309ZM15.2108 18.8204C15.3434 15.5816 15.3214 14.3225 13.8427 13.4803C12.364 12.6382 11.2618 13.265 8.54724 15.0254C6.22442 16.5304 3.88638 15.4345 2.29549 16.9303C1.99309 17.198 1.73425 17.5203 1.53332 17.8793C0.693238 19.3544 0.980421 21.0993 2.17085 21.7773C3.64958 22.6194 6.44755 22.3887 8.20529 23.3898C9.96303 24.3908 11.1828 26.9097 12.6615 27.7518C13.8519 28.4298 15.4942 27.7845 16.3346 26.3089C16.5395 25.9517 16.683 25.5637 16.7573 25.1665C17.2359 23.0286 15.1015 21.586 15.2108 18.8204ZM12.2498 9.41188C12.312 9.4474 12.3773 9.47738 12.4451 9.50154C13.6285 9.93339 15.2959 8.57241 16.1735 6.46271C17.0012 4.47406 16.8262 2.53438 15.8157 1.9589C15.7535 1.92338 15.6882 1.89341 15.6205 1.86924C14.4371 1.4374 12.7696 2.79837 11.892 4.90807C11.0674 6.8913 11.2393 8.83641 12.2498 9.41188ZM22.2092 10.7839C23.576 8.95276 23.8958 6.82431 22.9207 6.02681C22.8653 5.98086 22.8062 5.94001 22.7439 5.9046C21.7335 5.32913 19.9778 6.16924 18.6892 7.89544C17.3224 9.72654 17.0026 11.855 17.9778 12.6525C18.0331 12.6984 18.0922 12.7393 18.1545 12.7747C19.165 13.3502 20.9256 12.5057 22.2092 10.7839ZM5.19151 12.4259C6.51074 12.5306 7.89624 10.805 8.29028 8.57658C8.62272 6.69958 8.14442 5.06208 7.20323 4.52607C7.02611 4.42444 6.82817 4.3629 6.61986 4.34471C5.30064 4.24001 3.91513 5.9656 3.52109 8.19406C3.18866 10.0711 3.66696 11.7086 4.60814 12.2446C4.78526 12.3462 4.98321 12.4077 5.19151 12.4259Z" stroke="#17BAE2" stroke-width="2" stroke-miterlimit="10"/>
</svg>
